{"accessors" : [{"bufferView" : 0, "byteOffset" : 0, "componentType" : 5123, "count" : 180, "type" : "SCALAR", "max" : [149], "min" : [0]}, {"bufferView" : 1, "byteOffset" : 0, "componentType" : 5126, "count" : 150, "type" : "VEC3", "max" : [2.0314464569091797, 2.0314464569091797, -0.07212060689926147], "min" : [-2.0314464569091797, -2.0314464569091797, -0.14966583251953125], "name" : "POSITION"}, {"bufferView" : 1, "byteOffset" : 12, "componentType" : 5126, "count" : 150, "type" : "VEC3", "max" : [0.7071098685264587, 0.7071098685264587, 1.0000044107437134], "min" : [-0.7071098685264587, -0.7071098685264587, -1.0000044107437134], "name" : "NORMAL"}, {"bufferView" : 1, "byteOffset" : 24, "componentType" : 5126, "count" : 150, "type" : "VEC2", "max" : [0.875, 1], "min" : [0.125, 0], "name" : "TEXCOORD_0"}, {"bufferView" : 0, "byteOffset" : 360, "componentType" : 5123, "count" : 2880, "type" : "SCALAR", "max" : [2431], "min" : [0]}, {"bufferView" : 2, "byteOffset" : 0, "componentType" : 5126, "count" : 2432, "type" : "VEC3", "max" : [0.9999997019767761, 0.9999987483024597, 1], "min" : [-0.9999990463256836, -0.9999994039535522, -1], "name" : "POSITION"}, {"bufferView" : 2, "byteOffset" : 12, "componentType" : 5126, "count" : 2432, "type" : "VEC3", "max" : [0.9904427528381348, 0.9904432892799377, 0.9951428771018982], "min" : [-0.9904429316520691, -0.9904428124427795, -0.9951428771018982], "name" : "NORMAL"}, {"bufferView" : 2, "byteOffset" : 24, "componentType" : 5126, "count" : 2432, "type" : "VEC2", "max" : [1.0000001192092896, 1], "min" : [0, 0], "name" : "TEXCOORD_0"}, {"bufferView" : 0, "byteOffset" : 6120, "componentType" : 5123, "count" : 1290, "type" : "SCALAR", "max" : [1074], "min" : [0]}, {"bufferView" : 3, "byteOffset" : 0, "componentType" : 5126, "count" : 1075, "type" : "VEC3", "max" : [83.31089782714844, 7.248828411102295, 1.0800000429153442], "min" : [-1.598828911781311, -1.660629153251648, -1.1083621978759766], "name" : "POSITION"}, {"bufferView" : 3, "byteOffset" : 12, "componentType" : 5126, "count" : 1075, "type" : "VEC3", "max" : [0.9961990118026733, 0.9961991310119629, 1.0000039339065552], "min" : [-0.9961991310119629, -0.9961990118026733, -1.0000038146972656], "name" : "NORMAL"}, {"bufferView" : 3, "byteOffset" : 24, "componentType" : 5126, "count" : 1075, "type" : "VEC2", "max" : [1, 1], "min" : [-3.3155083656311035E-07, 0], "name" : "TEXCOORD_0"}, {"bufferView" : 0, "byteOffset" : 8700, "componentType" : 5123, "count" : 2883, "type" : "SCALAR", "max" : [2433], "min" : [0]}, {"bufferView" : 4, "byteOffset" : 0, "componentType" : 5126, "count" : 2434, "type" : "VEC3", "max" : [102.88105010986328, 22.677274703979492, -0.9030188918113708], "min" : [0.7464838027954102, -10.524507522583008, -1.26813542842865], "name" : "POSITION"}, {"bufferView" : 4, "byteOffset" : 12, "componentType" : 5126, "count" : 2434, "type" : "VEC3", "max" : [1.0000044107437134, 1.0000044107437134, 1.0000044107437134], "min" : [-0.9734922647476196, -1.0000044107437134, -1.0000044107437134], "name" : "NORMAL"}, {"bufferView" : 4, "byteOffset" : 24, "componentType" : 5126, "count" : 2434, "type" : "VEC2", "max" : [1.0000001192092896, 1], "min" : [0, 0], "name" : "TEXCOORD_0"}, {"bufferView" : 0, "byteOffset" : 14468, "componentType" : 5123, "count" : 3, "type" : "SCALAR", "max" : [2], "min" : [0]}, {"bufferView" : 5, "byteOffset" : 0, "componentType" : 5126, "count" : 3, "type" : "VEC3", "max" : [82.8707504272461, 6.70822286605835, -1.0499616861343384], "min" : [82.6082534790039, 6.076387405395508, -1.085577130317688], "name" : "POSITION"}, {"bufferView" : 5, "byteOffset" : 12, "componentType" : 5126, "count" : 3, "type" : "VEC3", "max" : [-0.13444840908050537, 0.0010740493889898062, 0.9909244179725647], "min" : [-0.13444840908050537, 0.0010740493889898062, 0.9909244179725647], "name" : "NORMAL"}, {"bufferView" : 5, "byteOffset" : 24, "componentType" : 5126, "count" : 3, "type" : "VEC2", "max" : [0.5312499403953552, 1], "min" : [0.4999999403953552, 0.9375000596046448], "name" : "TEXCOORD_0"}, {"bufferView" : 0, "byteOffset" : 14476, "componentType" : 5123, "count" : 864, "type" : "SCALAR", "max" : [682], "min" : [0]}, {"bufferView" : 6, "byteOffset" : 0, "componentType" : 5126, "count" : 683, "type" : "VEC3", "max" : [1.4199999570846558, 1.4199999570846558, -0.14269274473190308], "min" : [-1.4199999570846558, -1.4199999570846558, -1.0460582971572876], "name" : "POSITION"}, {"bufferView" : 6, "byteOffset" : 12, "componentType" : 5126, "count" : 683, "type" : "VEC3", "max" : [0.854995608329773, 0.854995608329773, 0.8529900312423706], "min" : [-0.854995608329773, -0.854995608329773, -0.8289039134979248], "name" : "NORMAL"}, {"bufferView" : 6, "byteOffset" : 24, "componentType" : 5126, "count" : 683, "type" : "VEC2", "max" : [1, 1], "min" : [-3.3155083656311035E-07, 0], "name" : "TEXCOORD_0"}], "asset" : {"generator" : "Aspose.3D 21.9", "version" : "2.0"}, "buffers" : [{"uri" : "data:application/octet-stream;base64,", "byteLength" : 275432}], "bufferViews" : [{"buffer" : 0, "byteOffset" : 0, "byteLength" : 16204, "target" : 34963}, {"buffer" : 0, "byteOffset" : 16208, "byteLength" : 5760, "byteStride" : 32, "target" : 34962}, {"buffer" : 0, "byteOffset" : 21972, "byteLength" : 92160, "byteStride" : 32, "target" : 34962}, {"buffer" : 0, "byteOffset" : 114136, "byteLength" : 41280, "byteStride" : 32, "target" : 34962}, {"buffer" : 0, "byteOffset" : 155420, "byteLength" : 92256, "byteStride" : 32, "target" : 34962}, {"buffer" : 0, "byteOffset" : 247680, "byteLength" : 96, "byteStride" : 32, "target" : 34962}, {"buffer" : 0, "byteOffset" : 247780, "byteLength" : 27648, "byteStride" : 32, "target" : 34962}], "materials" : [{"pbrMetallicRoughness" : {"baseColorFactor" : [0, 0, 0, 1], "metallicFactor" : 0, "roughnessFactor" : 1}, "emissiveFactor" : [0, 0, 0], "alphaMode" : "OPAQUE", "doubleSided" : true}, {"pbrMetallicRoughness" : {"baseColorFactor" : [0.8000000715255737, 0.8000000715255737, 0.8000000715255737, 1], "metallicFactor" : 0, "roughnessFactor" : 1}, "emissiveFactor" : [0, 0, 0], "alphaMode" : "OPAQUE", "doubleSided" : true}, {"pbrMetallicRoughness" : {"baseColorFactor" : [0, 0, 0, 1], "metallicFactor" : 0, "roughnessFactor" : 1}, "emissiveFactor" : [0, 0, 0], "alphaMode" : "OPAQUE", "doubleSided" : true}, {"pbrMetallicRoughness" : {"baseColorFactor" : [0.8000000715255737, 0.37254902720451355, 0, 1], "metallicFactor" : 0, "roughnessFactor" : 1}, "emissiveFactor" : [0, 0, 0], "alphaMode" : "OPAQUE", "doubleSided" : true}, {"pbrMetallicRoughness" : {"baseColorFactor" : [1, 1, 1, 1], "metallicFactor" : 0, "roughnessFactor" : 1}, "emissiveFactor" : [0, 0, 0], "alphaMode" : "OPAQUE", "doubleSided" : true}, {"pbrMetallicRoughness" : {"baseColorFactor" : [0, 0, 0, 1], "metallicFactor" : 0, "roughnessFactor" : 1}, "emissiveFactor" : [0, 0, 0], "alphaMode" : "OPAQUE", "doubleSided" : true}], "meshes" : [{"primitives" : [{"attributes" : {"POSITION" : 1, "NORMAL" : 2, "TEXCOORD_0" : 3}, "indices" : 0, "material" : 0, "mode" : 4}]}, {"primitives" : [{"attributes" : {"POSITION" : 5, "NORMAL" : 6, "TEXCOORD_0" : 7}, "indices" : 4, "material" : 1, "mode" : 4}]}, {"primitives" : [{"attributes" : {"POSITION" : 9, "NORMAL" : 10, "TEXCOORD_0" : 11}, "indices" : 8, "material" : 2, "mode" : 4}]}, {"primitives" : [{"attributes" : {"POSITION" : 13, "NORMAL" : 14, "TEXCOORD_0" : 15}, "indices" : 12, "material" : 3, "mode" : 4}]}, {"primitives" : [{"attributes" : {"POSITION" : 17, "NORMAL" : 18, "TEXCOORD_0" : 19}, "indices" : 16, "material" : 4, "mode" : 4}]}, {"primitives" : [{"attributes" : {"POSITION" : 21, "NORMAL" : 22, "TEXCOORD_0" : 23}, "indices" : 20, "material" : 5, "mode" : 4}]}], "nodes" : [{"mesh" : 0, "name" : "Cylinder_Material.001_0"}, {"children" : [0], "matrix" : [100, 0, 0, 0, 0, -1.3435885648505064E-05, -99.99999657714511, 0, 0, 99.99999657714511, -1.3435885648505064E-05, 0, 0, 100.86099243164062, 0, 1], "name" : "Cylinder"}, {"mesh" : 1, "name" : "Sphere_Material.003_0"}, {"children" : [2], "matrix" : [16.455303192138672, 0, 0, 0, 0, -2.2109157200105554E-06, -16.455302628897524, 0, 0, 8.240427688828339, -1.1071744791157E-06, 0, 0, 96.26226043701172, 0, 1], "name" : "Sphere"}, {"mesh" : 2, "name" : "Cylinder.001_Material.001_0"}, {"children" : [4], "matrix" : [-1.164242531831218E-07, -0.976637421645961, -5.821212312184798E-08, 0, -5.7952746601586114E-08, 0, -0.9722858054808228, 0, 88.41457893935285, -5.2699192565341946E-06, -1.053983914129172E-05, 0, -109.83331298828125, 95.47657775878906, 0, 1], "name" : "Cylinder.001"}, {"mesh" : 3, "name" : "Cylinder.002_Material.002_0"}, {"children" : [6], "matrix" : [-1.164242531831218E-07, -0.976637421645961, -5.821212312184798E-08, 0, -5.7952746601586114E-08, 0, -0.9722858054808228, 0, 88.41457893935285, -5.2699192565341946E-06, -1.053983914129172E-05, 0, -109.83331298828125, 88.5963134765625, 0, 1], "name" : "Cylinder.002"}, {"mesh" : 4, "name" : "Cylinder.003__0"}, {"children" : [8], "matrix" : [-1.164242531831218E-07, -0.976637421645961, -5.821212312184798E-08, 0, -5.7952746601586114E-08, 0, -0.9722858054808228, 0, 88.41457893935285, -5.2699192565341946E-06, -1.053983914129172E-05, 0, -109.83331298828125, 95.47657775878906, 0, 1], "name" : "Cylinder.003"}, {"mesh" : 5, "name" : "Cylinder.004_Material.001_0"}, {"children" : [10], "matrix" : [100, 0, 0, 0, 0, -1.3435885648505064E-05, -99.99999657714511, 0, 0, 99.99999657714511, -1.3435885648505064E-05, 0, 0, 100.86099243164062, 0, 1], "name" : "Cylinder.004"}, {"children" : [1, 3, 5, 7, 9, 11], "name" : "RootNode"}, {"children" : [12], "matrix" : [0.009999999776482582, 0, 0, 0, 0, 3.4228541013634965E-10, 0.009999999434197172, 0, 0, -0.009999999434197172, 3.4228541013634965E-10, 0, 0, 0, 0, 1], "name" : "6ef1af7f8a1c461884d3c1f874a157cd.fbx"}, {"children" : [13], "matrix" : [1, 0, 0, 0, 0, 3.422854177870249E-08, -0.9999999657714582, 0, 0, 0.9999999657714582, 3.422854177870249E-08, 0, 0, 0, 0, 1], "name" : "Sketchfab_model"}], "scene" : 0, "scenes" : [{"nodes" : [14]}]}