{
  "accessors": [
    {
      "bufferView": 2,
      "componentType": 5126,
      "count": 10560,
      "max": [
        275.01519775390625,
        -184.95013427734375,
        540.67474365234375
      ],
      "min": [
        -996.1905517578125,
        -1271.171142578125,
        -138.52163696289062
      ],
      "type": "VEC3"
    },
    {
      "bufferView": 2,
      "byteOffset": 126720,
      "componentType": 5126,
      "count": 10560,
      "max": [
        1,
        1,
        1
      ],
      "min": [
        -1,
        -1,
        -1
      ],
      "type": "VEC3"
    },
    {
      "bufferView": 1,
      "componentType": 5126,
      "count": 10560,
      "max": [
        0.99355638027191162,
        0.99361974000930786
      ],
      "min": [
        0,
        0
      ],
      "type": "VEC2"
    },
    {
      "bufferView": 0,
      "componentType": 5125,
      "count": 25482,
      "max": [
        10559
      ],
      "min": [
        0
      ],
      "type": "SCALAR"
    },
    {
      "bufferView": 2,
      "byteOffset": 253440,
      "componentType": 5126,
      "count": 98,
      "max": [
        105.47201538085938,
        -361.212158203125,
        79.356765747070312
      ],
      "min": [
        -777.261962890625,
        -1158.1424560546875,
        -13.936668395996094
      ],
      "type": "VEC3"
    },
    {
      "bufferView": 2,
      "byteOffset": 254616,
      "componentType": 5126,
      "count": 98,
      "max": [
        0.99702680110931396,
        0.99703049659729004,
        0.99990940093994141
      ],
      "min": [
        -0.99702680110931396,
        -0.99703043699264526,
        -0.98938918113708496
      ],
      "type": "VEC3"
    },
    {
      "bufferView": 1,
      "byteOffset": 84480,
      "componentType": 5126,
      "count": 98,
      "max": [
        2.7723579406738281,
        22.839984893798828
      ],
      "min": [
        -0.70124053955078125,
        0.0079763326793909073
      ],
      "type": "VEC2"
    },
    {
      "bufferView": 0,
      "byteOffset": 101928,
      "componentType": 5125,
      "count": 174,
      "max": [
        97
      ],
      "min": [
        0
      ],
      "type": "SCALAR"
    }
  ],
  "asset": {
    "extras": {
      "author": "ThorvaldMortele (https://sketchfab.com/ThorvaldMortele)",
      "license": "CC-BY-4.0 (http://creativecommons.org/licenses/by/4.0/)",
      "source": "https://sketchfab.com/3d-models/greek-temple-6909cd9bf69d4b948141fbab05f5c5a0",
      "title": "Greek Temple"
    },
    "generator": "Sketchfab-8.72.3",
    "version": "2.0"
  },
  "bufferViews": [
    {
      "buffer": 0,
      "byteLength": 102624,
      "byteOffset": 0,
      "name": "floatBufferViews",
      "target": 34963
    },
    {
      "buffer": 0,
      "byteLength": 85264,
      "byteOffset": 102624,
      "byteStride": 8,
      "name": "floatBufferViews",
      "target": 34962
    },
    {
      "buffer": 0,
      "byteLength": 255792,
      "byteOffset": 187888,
      "byteStride": 12,
      "name": "floatBufferViews",
      "target": 34962
    }
  ],
  "buffers": [
    {
      "byteLength": 443680,
      "uri": "scene.bin"
    }
  ],
  "images": [
    {
      "uri": "textures/Material_108_baseColor.jpeg"
    },
    {
      "uri": "textures/Material_109_baseColor.jpeg"
    }
  ],
  "materials": [
    {
      "doubleSided": true,
      "emissiveFactor": [
        0,
        0,
        0
      ],
      "name": "Material_108",
      "pbrMetallicRoughness": {
        "baseColorFactor": [
          1,
          1,
          1,
          1
        ],
        "baseColorTexture": {
          "index": 0,
          "texCoord": 0
        },
        "metallicFactor": 0,
        "roughnessFactor": 0.89297135959999996
      }
    },
    {
      "doubleSided": true,
      "emissiveFactor": [
        0,
        0,
        0
      ],
      "name": "Material_109",
      "pbrMetallicRoughness": {
        "baseColorFactor": [
          1,
          1,
          1,
          1
        ],
        "baseColorTexture": {
          "index": 1,
          "texCoord": 0
        },
        "metallicFactor": 0,
        "roughnessFactor": 0.89297135959999996
      }
    }
  ],
  "meshes": [
    {
      "name": "Building_Material #108_0",
      "primitives": [
        {
          "attributes": {
            "NORMAL": 1,
            "POSITION": 0,
            "TEXCOORD_0": 2
          },
          "indices": 3,
          "material": 0,
          "mode": 4
        }
      ]
    },
    {
      "name": "Building_Material #109_0",
      "primitives": [
        {
          "attributes": {
            "NORMAL": 5,
            "POSITION": 4,
            "TEXCOORD_0": 6
          },
          "indices": 7,
          "material": 1,
          "mode": 4
        }
      ]
    }
  ],
  "nodes": [
    {
      "children": [
        1
      ],
      "name": "RootNode (gltf orientation matrix)",
      "rotation": [
        -0.70710678118654746,
        -0,
        -0,
        0.70710678118654757
      ]
    },
    {
      "children": [
        2
      ],
      "name": "RootNode (model correction matrix)"
    },
    {
      "children": [
        3
      ],
      "matrix": [
        1,
        0,
        0,
        0,
        0,
        0,
        1,
        0,
        0,
        -1,
        0,
        0,
        0,
        0,
        0,
        1
      ],
      "name": "7aba0d60195a4394931bb2764fa0707d.fbx"
    },
    {
      "children": [
        4
      ],
      "name": "RootNode"
    },
    {
      "children": [
        5
      ],
      "matrix": [
        0.99702670740728427,
        0.010062048469114446,
        -0.076396988796644569,
        0,
        -0.076487579134229475,
        0.0089485347349679278,
        -0.99703037765370128,
        0,
        -0.0093485268772372926,
        0.99990933534331128,
        0.0096915498514585918,
        0,
        -10.72320556640625,
        202.67807006835938,
        -14.6953125,
        1
      ],
      "name": "Building"
    },
    {
      "children": [
        6,
        7
      ],
      "matrix": [
        1,
        0,
        -0,
        0,
        0,
        1,
        0,
        0,
        0,
        0,
        1,
        0,
        338.15994262695312,
        755.26373291015625,
        -201.0765380859375,
        1
      ],
      "name": ""
    },
    {
      "mesh": 0,
      "name": "Building_Material #108_0"
    },
    {
      "mesh": 1,
      "name": "Building_Material #109_0"
    }
  ],
  "samplers": [
    {
      "magFilter": 9729,
      "minFilter": 9987,
      "wrapS": 10497,
      "wrapT": 10497
    }
  ],
  "scene": 0,
  "scenes": [
    {
      "name": "OSG_Scene",
      "nodes": [
        0
      ]
    }
  ],
  "textures": [
    {
      "sampler": 0,
      "source": 0
    },
    {
      "sampler": 0,
      "source": 1
    }
  ]
}

