{"extensionsUsed" : ["KHR_materials_pbrSpecularGlossiness"], "accessors" : [{"bufferView" : 0, "byteOffset" : 0, "componentType" : 5123, "count" : 162, "type" : "SCALAR", "max" : [156], "min" : [0]}, {"bufferView" : 1, "byteOffset" : 0, "componentType" : 5126, "count" : 157, "type" : "VEC3", "max" : [1.5441900491714478, 1.1397600173950195, 3.6650099754333496], "min" : [-0.9130499958992004, -1.627709984779358, 0], "name" : "POSITION"}, {"bufferView" : 1, "byteOffset" : 12, "componentType" : 5126, "count" : 157, "type" : "VEC3", "max" : [0.9885045886039734, 0.9723160266876221, 0.9376952052116394], "min" : [-0.9791339635848999, -0.999488353729248, -0.932957112789154], "name" : "NORMAL"}, {"bufferView" : 1, "byteOffset" : 24, "componentType" : 5126, "count" : 157, "type" : "VEC4", "max" : [0.9911231398582458, 0.9858132004737854, 0.9950563907623291, 0], "min" : [-0.981285035610199, -0.9112794995307922, -0.9797745943069458, 0], "name" : "TANGENT"}, {"bufferView" : 1, "byteOffset" : 40, "componentType" : 5126, "count" : 157, "type" : "VEC2", "max" : [0.2586899995803833, 0.9975299835205078], "min" : [0.18782000243663788, 0.9751399755477905], "name" : "TEXCOORD_0"}, {"bufferView" : 0, "byteOffset" : 324, "componentType" : 5123, "count" : 135, "type" : "SCALAR", "max" : [129], "min" : [0]}, {"bufferView" : 2, "byteOffset" : 0, "componentType" : 5126, "count" : 130, "type" : "VEC3", "max" : [0.9033499956130981, 1.039330005645752, 3.311569929122925], "min" : [-0.8556399941444397, -1.0103100538253784, 0], "name" : "POSITION"}, {"bufferView" : 2, "byteOffset" : 12, "componentType" : 5126, "count" : 130, "type" : "VEC4", "max" : [0.9606836438179016, 0.99158775806427, 0.8879761695861816, 0], "min" : [-0.9554619193077087, -0.9679186940193176, -0.8943168520927429, 0], "name" : "TANGENT"}, {"bufferView" : 2, "byteOffset" : 28, "componentType" : 5126, "count" : 130, "type" : "VEC3", "max" : [0.9593298435211182, 0.8663074970245361, 0.7225958704948425], "min" : [-0.9501004219055176, -0.998995840549469, -0.7547147870063782], "name" : "NORMAL"}, {"bufferView" : 2, "byteOffset" : 40, "componentType" : 5126, "count" : 130, "type" : "VEC2", "max" : [0.19395999610424042, 0.9972100257873535], "min" : [0.0725099965929985, 0.9764800071716309], "name" : "TEXCOORD_0"}, {"bufferView" : 0, "byteOffset" : 596, "componentType" : 5123, "count" : 60, "type" : "SCALAR", "max" : [59], "min" : [0]}, {"bufferView" : 3, "byteOffset" : 0, "componentType" : 5126, "count" : 60, "type" : "VEC3", "max" : [1.0795799493789673, 1.146399974822998, 2.83309006690979], "min" : [-1.078070044517517, -0.9082900285720825, 0], "name" : "POSITION"}, {"bufferView" : 3, "byteOffset" : 12, "componentType" : 5126, "count" : 60, "type" : "VEC3", "max" : [0.9493841528892517, 0.8376613855361938, 0.7162816524505615], "min" : [-0.9493841528892517, -0.9982410669326782, 0.059360064566135406], "name" : "NORMAL"}, {"bufferView" : 3, "byteOffset" : 24, "componentType" : 5126, "count" : 60, "type" : "VEC4", "max" : [0.1772647351026535, 0.6258543133735657, 0.9973140358924866, 0], "min" : [-0.9994843006134033, -0.9980795383453369, -0.9982410669326782, 0], "name" : "TANGENT"}, {"bufferView" : 3, "byteOffset" : 40, "componentType" : 5126, "count" : 60, "type" : "VEC2", "max" : [0.22502000629901886, 0.9957799911499023], "min" : [0.1880899965763092, 0.9786900281906128], "name" : "TEXCOORD_0"}, {"bufferView" : 0, "byteOffset" : 716, "componentType" : 5123, "count" : 153, "type" : "SCALAR", "max" : [146], "min" : [0]}, {"bufferView" : 4, "byteOffset" : 0, "componentType" : 5126, "count" : 147, "type" : "VEC3", "max" : [0.97052001953125, 0.8502399921417236, 3.183190107345581], "min" : [-0.8782399892807007, -0.7848399877548218, 0], "name" : "POSITION"}, {"bufferView" : 4, "byteOffset" : 12, "componentType" : 5126, "count" : 147, "type" : "VEC4", "max" : [0.8844453692436218, 0.5297090411186218, 0.5022230744361877, 0], "min" : [-0.999634325504303, -0.9901971220970154, -0.727964460849762, 0], "name" : "TANGENT"}, {"bufferView" : 4, "byteOffset" : 28, "componentType" : 5126, "count" : 147, "type" : "VEC3", "max" : [0.950762152671814, 0.9051128029823303, 0.9304788112640381], "min" : [-0.950762152671814, -0.9996903538703918, -0.9115096926689148], "name" : "NORMAL"}, {"bufferView" : 4, "byteOffset" : 40, "componentType" : 5126, "count" : 147, "type" : "VEC2", "max" : [0.25429999828338623, 0.9924700260162354], "min" : [0.18846000730991364, 0.978190004825592], "name" : "TEXCOORD_0"}, {"bufferView" : 0, "byteOffset" : 1024, "componentType" : 5123, "count" : 69, "type" : "SCALAR", "max" : [68], "min" : [0]}, {"bufferView" : 5, "byteOffset" : 0, "componentType" : 5126, "count" : 69, "type" : "VEC3", "max" : [0.6215000152587891, 0.7830600142478943, 0.9886199831962585], "min" : [-0.6030499935150146, -0.5554100275039673, 0], "name" : "POSITION"}, {"bufferView" : 5, "byteOffset" : 12, "componentType" : 5126, "count" : 69, "type" : "VEC3", "max" : [0.9217948913574219, 0.8235827684402466, 0.8688660264015198], "min" : [-0.9510018825531006, -0.9987751245498657, -0.736664891242981], "name" : "NORMAL"}, {"bufferView" : 5, "byteOffset" : 24, "componentType" : 5126, "count" : 69, "type" : "VEC4", "max" : [0.865490734577179, 0.9795987606048584, 0.8734119534492493, 0], "min" : [-0.8499283790588379, -0.7190561294555664, -0.8484243750572205, 0], "name" : "TANGENT"}, {"bufferView" : 5, "byteOffset" : 40, "componentType" : 5126, "count" : 69, "type" : "VEC2", "max" : [0.02517000027000904, 0.9958800077438354], "min" : [0.0061599998734891415, 0.9738799929618835], "name" : "TEXCOORD_0"}, {"bufferView" : 0, "byteOffset" : 1164, "componentType" : 5123, "count" : 237, "type" : "SCALAR", "max" : [232], "min" : [0]}, {"bufferView" : 6, "byteOffset" : 0, "componentType" : 5126, "count" : 233, "type" : "VEC3", "max" : [0.46175000071525574, 0.49424999952316284, 0.5973600149154663], "min" : [-0.6465299725532532, -0.8852800130844116, -0.013690000399947166], "name" : "POSITION"}, {"bufferView" : 6, "byteOffset" : 12, "componentType" : 5126, "count" : 233, "type" : "VEC3", "max" : [0.9679853320121765, 0.8746347427368164, 0.9381235837936401], "min" : [-0.9736379981040955, -0.9971258640289307, -0.5806623101234436], "name" : "NORMAL"}, {"bufferView" : 6, "byteOffset" : 24, "componentType" : 5126, "count" : 233, "type" : "VEC4", "max" : [0.8457834720611572, 0.6072931289672852, 0.9531381130218506, 0], "min" : [-0.9811331629753113, -0.996510922908783, -0.9541779160499573, 0], "name" : "TANGENT"}, {"bufferView" : 6, "byteOffset" : 40, "componentType" : 5126, "count" : 233, "type" : "VEC2", "max" : [0.26041001081466675, 0.9994099736213684], "min" : [0.007259999867528677, 0.9745500087738037], "name" : "TEXCOORD_0"}, {"bufferView" : 0, "byteOffset" : 1640, "componentType" : 5123, "count" : 66, "type" : "SCALAR", "max" : [63], "min" : [0]}, {"bufferView" : 7, "byteOffset" : 0, "componentType" : 5126, "count" : 64, "type" : "VEC3", "max" : [0.5431600213050842, 0.5431600213050842, 0.4231100082397461], "min" : [-0.5431600213050842, -0.5431600213050842, 0], "name" : "POSITION"}, {"bufferView" : 7, "byteOffset" : 12, "componentType" : 5126, "count" : 64, "type" : "VEC4", "max" : [-0.3839679956436157, 0.08801046758890152, 0.8926622867584229, 0], "min" : [-0.9294372797012329, -0.7231935262680054, -0.9114286303520203, 0], "name" : "TANGENT"}, {"bufferView" : 7, "byteOffset" : 28, "componentType" : 5126, "count" : 64, "type" : "VEC3", "max" : [0.8572055101394653, 0.8718761205673218, -0.195120170712471], "min" : [-0.8692171573638916, -0.8133190274238586, -0.9545532464981079], "name" : "NORMAL"}, {"bufferView" : 7, "byteOffset" : 40, "componentType" : 5126, "count" : 64, "type" : "VEC2", "max" : [0.23175999522209167, 0.9965400099754333], "min" : [0.20833000540733337, 0.9735100269317627], "name" : "TEXCOORD_0"}], "asset" : {"generator" : "Aspose.3D 21.9", "version" : "2.0"}, "buffers" : [{"uri" : "data:application/octet-stream;base64,", "byteLength" : 44140}], "bufferViews" : [{"buffer" : 0, "byteOffset" : 0, "byteLength" : 1772, "target" : 34963}, {"buffer" : 0, "byteOffset" : 1776, "byteLength" : 7776, "byteStride" : 48, "target" : 34962}, {"buffer" : 0, "byteOffset" : 9556, "byteLength" : 6480, "byteStride" : 48, "target" : 34962}, {"buffer" : 0, "byteOffset" : 16040, "byteLength" : 2880, "byteStride" : 48, "target" : 34962}, {"buffer" : 0, "byteOffset" : 18924, "byteLength" : 7344, "byteStride" : 48, "target" : 34962}, {"buffer" : 0, "byteOffset" : 26272, "byteLength" : 3312, "byteStride" : 48, "target" : 34962}, {"buffer" : 0, "byteOffset" : 29588, "byteLength" : 11376, "byteStride" : 48, "target" : 34962}, {"buffer" : 0, "byteOffset" : 40968, "byteLength" : 3168, "byteStride" : 48, "target" : 34962}], "images" : [{"uri" : "data:image/png;base64,"}], "materials" : [{"name" : "", "extensions" : {"KHR_materials_pbrSpecularGlossiness" : {"diffuseFactor" : [1, 1, 1, 1], "diffuseTexture" : {"index" : 0, "texCoord" : 0}, "specularFactor" : [0, 0, 0], "glossinessFactor" : 0.501960813999176}}, "pbrMetallicRoughness" : {"baseColorFactor" : [1, 1, 1, 1], "metallicFactor" : 1, "roughnessFactor" : 1}, "emissiveFactor" : [0, 0, 0], "alphaMode" : "OPAQUE", "doubleSided" : true}, {"name" : "", "extensions" : {"KHR_materials_pbrSpecularGlossiness" : {"diffuseFactor" : [1, 1, 1, 1], "diffuseTexture" : {"index" : 0, "texCoord" : 0}, "specularFactor" : [0, 0, 0], "glossinessFactor" : 0.501960813999176}}, "pbrMetallicRoughness" : {"baseColorFactor" : [1, 1, 1, 1], "metallicFactor" : 1, "roughnessFactor" : 1}, "emissiveFactor" : [0, 0, 0], "alphaMode" : "OPAQUE", "doubleSided" : true}, {"name" : "", "extensions" : {"KHR_materials_pbrSpecularGlossiness" : {"diffuseFactor" : [1, 1, 1, 1], "diffuseTexture" : {"index" : 0, "texCoord" : 0}, "specularFactor" : [0, 0, 0], "glossinessFactor" : 0.501960813999176}}, "pbrMetallicRoughness" : {"baseColorFactor" : [1, 1, 1, 1], "metallicFactor" : 1, "roughnessFactor" : 1}, "emissiveFactor" : [0, 0, 0], "alphaMode" : "OPAQUE", "doubleSided" : true}, {"name" : "", "extensions" : {"KHR_materials_pbrSpecularGlossiness" : {"diffuseFactor" : [1, 1, 1, 1], "diffuseTexture" : {"index" : 0, "texCoord" : 0}, "specularFactor" : [0, 0, 0], "glossinessFactor" : 0.501960813999176}}, "pbrMetallicRoughness" : {"baseColorFactor" : [1, 1, 1, 1], "metallicFactor" : 1, "roughnessFactor" : 1}, "emissiveFactor" : [0, 0, 0], "alphaMode" : "OPAQUE", "doubleSided" : true}, {"name" : "", "extensions" : {"KHR_materials_pbrSpecularGlossiness" : {"diffuseFactor" : [1, 1, 1, 1], "diffuseTexture" : {"index" : 0, "texCoord" : 0}, "specularFactor" : [0, 0, 0], "glossinessFactor" : 0.501960813999176}}, "pbrMetallicRoughness" : {"baseColorFactor" : [1, 1, 1, 1], "metallicFactor" : 1, "roughnessFactor" : 1}, "emissiveFactor" : [0, 0, 0], "alphaMode" : "OPAQUE", "doubleSided" : true}, {"name" : "", "extensions" : {"KHR_materials_pbrSpecularGlossiness" : {"diffuseFactor" : [1, 1, 1, 1], "diffuseTexture" : {"index" : 0, "texCoord" : 0}, "specularFactor" : [0, 0, 0], "glossinessFactor" : 0.501960813999176}}, "pbrMetallicRoughness" : {"baseColorFactor" : [1, 1, 1, 1], "metallicFactor" : 1, "roughnessFactor" : 1}, "emissiveFactor" : [0, 0, 0], "alphaMode" : "OPAQUE", "doubleSided" : true}, {"name" : "", "extensions" : {"KHR_materials_pbrSpecularGlossiness" : {"diffuseFactor" : [1, 1, 1, 1], "diffuseTexture" : {"index" : 0, "texCoord" : 0}, "specularFactor" : [0, 0, 0], "glossinessFactor" : 0.501960813999176}}, "pbrMetallicRoughness" : {"baseColorFactor" : [1, 1, 1, 1], "metallicFactor" : 1, "roughnessFactor" : 1}, "emissiveFactor" : [0, 0, 0], "alphaMode" : "OPAQUE", "doubleSided" : true}], "meshes" : [{"primitives" : [{"attributes" : {"POSITION" : 1, "NORMAL" : 2, "TANGENT" : 3, "TEXCOORD_0" : 4}, "indices" : 0, "material" : 0, "mode" : 4}]}, {"primitives" : [{"attributes" : {"POSITION" : 6, "TANGENT" : 7, "NORMAL" : 8, "TEXCOORD_0" : 9}, "indices" : 5, "material" : 1, "mode" : 4}]}, {"primitives" : [{"attributes" : {"POSITION" : 11, "NORMAL" : 12, "TANGENT" : 13, "TEXCOORD_0" : 14}, "indices" : 10, "material" : 2, "mode" : 4}]}, {"primitives" : [{"attributes" : {"POSITION" : 16, "TANGENT" : 17, "NORMAL" : 18, "TEXCOORD_0" : 19}, "indices" : 15, "material" : 3, "mode" : 4}]}, {"primitives" : [{"attributes" : {"POSITION" : 21, "NORMAL" : 22, "TANGENT" : 23, "TEXCOORD_0" : 24}, "indices" : 20, "material" : 4, "mode" : 4}]}, {"primitives" : [{"attributes" : {"POSITION" : 26, "NORMAL" : 27, "TANGENT" : 28, "TEXCOORD_0" : 29}, "indices" : 25, "material" : 5, "mode" : 4}]}, {"primitives" : [{"attributes" : {"POSITION" : 31, "TANGENT" : 32, "NORMAL" : 33, "TEXCOORD_0" : 34}, "indices" : 30, "material" : 6, "mode" : 4}]}], "nodes" : [{"mesh" : 0, "name" : "Tree1_0"}, {"children" : [0], "matrix" : [1, 0, 0, 0, 0, 1, 0, 0, 0, 0, 1, 0, 0, 4, 0, 1], "name" : "Tree1"}, {"mesh" : 1, "name" : "Tree2_0"}, {"children" : [2], "matrix" : [1, 0, 0, 0, 0, 1, 0, 0, 0, 0, 1, 0, 0, -4, 0, 1], "name" : "Tree2"}, {"mesh" : 2, "name" : "Tree3_0"}, {"children" : [4], "matrix" : [1, 0, 0, 0, 0, 1, 0, 0, 0, 0, 1, 0, 4, 0, 0, 1], "name" : "Tree3"}, {"mesh" : 3, "name" : "Tree4_0"}, {"children" : [6], "matrix" : [1, 0, 0, 0, 0, 1, 0, 0, 0, 0, 1, 0, -4, 0, 0, 1], "name" : "Tree4"}, {"mesh" : 4, "name" : "Bush1_0"}, {"children" : [8], "matrix" : [1, 0, 0, 0, 0, 1, 0, 0, 0, 0, 1, 0, 2, 2, 0, 1], "name" : "Bush1"}, {"mesh" : 5, "name" : "Bush2_0"}, {"children" : [10], "matrix" : [1, 0, 0, 0, 0, 1, 0, 0, 0, 0, 1, 0, -2, 0, 0, 1], "name" : "Bush2"}, {"mesh" : 6, "name" : "Bush3_0"}, {"children" : [12], "matrix" : [1, 0, 0, 0, 0, 1, 0, 0, 0, 0, 1, 0, 2, -2, 0, 1], "name" : "Bush3"}, {"children" : [1, 3, 5, 7, 9, 11, 13], "name" : "Root"}, {"children" : [14], "name" : "RootNode (model correction matrix)"}, {"children" : [15], "matrix" : [1, 0, 0, 0, 0, 2.028159137428297E-07, -0.9999999061668083, 0, 0, 0.9999999061668083, 2.028159137428297E-07, 0, 0, 0, 0, 1], "name" : "RootNode (gltf orientation matrix)"}], "samplers" : [{"magFilter" : 9729, "minFilter" : 9987, "wrapS" : 10497, "wrapT" : 10497}], "scene" : 0, "scenes" : [{"nodes" : [16]}], "textures" : [{"sampler" : 0, "source" : 0}]}